<svg version="1.1" viewBox="0.0 0.0 960.0 720.0" fill="none" stroke="none" stroke-linecap="square" stroke-miterlimit="10" xmlns:xlink="http://www.w3.org/1999/xlink" xmlns="http://www.w3.org/2000/svg"><clipPath id="p.0"><path d="m0 0l960.0 0l0 720.0l-960.0 0l0 -720.0z" clip-rule="nonzero"/></clipPath><g clip-path="url(#p.0)"><path fill="#000000" fill-opacity="0.0" d="m0 0l960.0 0l0 720.0l-960.0 0z" fill-rule="evenodd"/><path fill="#ffffff" d="m282.2362 360.0l0 0c0 -103.2207 88.54187 -186.89764 197.7638 -186.89764l0 0c52.450195 0 102.7522 19.690948 139.84009 54.74106c37.08795 35.05011 57.923706 82.58826 57.923706 132.15659l0 0c0 103.2207 -88.54187 186.89764 -197.7638 186.89764l0 0c-109.221924 0 -197.7638 -83.67694 -197.7638 -186.89764z" fill-rule="evenodd"/><path stroke="#efefef" stroke-width="1.0" stroke-linejoin="round" stroke-linecap="butt" d="m282.2362 360.0l0 0c0 -103.2207 88.54187 -186.89764 197.7638 -186.89764l0 0c52.450195 0 102.7522 19.690948 139.84009 54.74106c37.08795 35.05011 57.923706 82.58826 57.923706 132.15659l0 0c0 103.2207 -88.54187 186.89764 -197.7638 186.89764l0 0c-109.221924 0 -197.7638 -83.67694 -197.7638 -186.89764z" fill-rule="evenodd"/><path fill="#000000" fill-opacity="0.0" d="m343.49606 260.4882l273.0079 0l0 199.02362l-273.0079 0z" fill-rule="evenodd"/><path fill="#86bbd8" d="m424.642 324.52444q5.5 0 10.234375 1.859375q4.734375 1.859375 8.25 4.8125q3.53125 2.9375 5.515625 6.140625q1.984375 3.1875 1.984375 6.0l-2.4375 -1.53125l0 -11.140625q0 -2.171875 1.40625 -3.640625q1.40625 -1.46875 3.71875 -1.46875q2.171875 0 3.640625 1.46875q1.484375 1.46875 1.484375 3.640625l0 56.078125q0 10.484375 -4.421875 17.390625q-4.421875 6.921875 -11.84375 10.375q-7.421875 3.453125 -16.640625 3.453125q-3.84375 0 -8.453125 -1.03125q-4.59375 -1.015625 -8.1875 -2.484375q-3.578125 -1.46875 -4.609375 -3.0q-1.921875 -1.28125 -2.375 -2.890625q-0.4375 -1.59375 0.59375 -3.0q1.140625 -1.796875 3.0 -1.796875q1.859375 0 4.671875 1.15625q1.15625 0.375 3.640625 1.265625q2.5 0.90625 5.640625 1.609375q3.140625 0.703125 6.203125 0.703125q10.890625 0 16.703125 -5.703125q5.828125 -5.6875 5.828125 -15.03125l0 -11.90625l1.40625 0.640625q-0.765625 3.59375 -3.140625 6.671875q-2.359375 3.0625 -5.75 5.4375q-3.390625 2.359375 -7.484375 3.703125q-4.09375 1.34375 -8.328125 1.34375q-8.953125 0 -16.125 -4.484375q-7.171875 -4.484375 -11.328125 -12.28125q-4.15625 -7.8125 -4.15625 -17.796875q0 -10.109375 4.15625 -17.921875q4.15625 -7.8125 11.265625 -12.21875q7.109375 -4.421875 15.9375 -4.421875zm1.28125 9.46875q-6.53125 0 -11.71875 3.265625q-5.1875 3.265625 -8.0625 8.90625q-2.875 5.625 -2.875 12.921875q0 7.046875 2.875 12.75q2.875 5.6875 8.0625 9.015625q5.1875 3.328125 11.71875 3.328125q6.65625 0 11.765625 -3.265625q5.125 -3.265625 8.0625 -8.890625q2.953125 -5.640625 2.953125 -12.9375q0 -7.421875 -2.953125 -13.046875q-2.9375 -5.640625 -8.0625 -8.84375q-5.109375 -3.203125 -11.765625 -3.203125z" fill-rule="nonzero"/><path fill="#2f4858" d="m531.904 325.5557q2.171875 0 3.640625 1.46875q1.484375 1.46875 1.484375 3.640625l0 56.453125q0 2.171875 -1.484375 3.71875q-1.46875 1.53125 -3.640625 1.53125q-2.296875 0 -3.71875 -1.53125q-1.40625 -1.546875 -1.40625 -3.71875l0 -12.15625l2.4375 -0.25q0 2.8125 -1.921875 6.140625q-1.921875 3.328125 -5.25 6.203125q-3.328125 2.875 -7.875 4.734375q-4.53125 1.859375 -9.78125 1.859375q-8.703125 0 -15.625 -4.546875q-6.90625 -4.546875 -10.9375 -12.34375q-4.03125 -7.8125 -4.03125 -17.796875q0 -10.109375 4.03125 -17.859375q4.03125 -7.75 10.9375 -12.15625q6.921875 -4.421875 15.359375 -4.421875q5.515625 0 10.25 1.796875q4.734375 1.796875 8.25 4.875q3.515625 3.0625 5.5 6.78125q1.984375 3.703125 1.984375 7.421875l-3.328125 -0.78125l0 -13.953125q0 -2.171875 1.40625 -3.640625q1.421875 -1.46875 3.71875 -1.46875zm-26.375 58.625q6.40625 0 11.328125 -3.328125q4.9375 -3.328125 7.6875 -9.015625q2.75 -5.703125 2.75 -12.875q0 -7.046875 -2.75 -12.734375q-2.75 -5.703125 -7.6875 -8.96875q-4.921875 -3.265625 -11.328125 -3.265625q-6.265625 0 -11.203125 3.203125q-4.921875 3.203125 -7.734375 8.84375q-2.8125 5.625 -2.8125 12.921875q0 7.171875 2.75 12.875q2.75 5.6875 7.671875 9.015625q4.9375 3.328125 11.328125 3.328125z" fill-rule="nonzero"/><path fill="#f6ae2d" d="m559.04285 392.2432q-2.6875 0 -4.171875 -1.53125q-1.46875 -1.546875 -1.46875 -4.234375l0 -2.5625q0 -2.8125 1.46875 -4.34375q1.484375 -1.546875 4.171875 -1.546875l1.015625 0q2.828125 0 4.234375 1.546875q1.40625 1.53125 1.40625 4.34375l0 2.5625q0 2.6875 -1.40625 4.234375q-1.40625 1.53125 -4.234375 1.53125l-1.015625 0z" fill-rule="nonzero"/><path fill="#000000" fill-opacity="0.0" d="m282.2362 360.0l0 0c0 -103.2207 88.54187 -186.89764 197.7638 -186.89764l0 0c52.450195 0 102.7522 19.690948 139.84009 54.74106c37.08795 35.05011 57.923706 82.58826 57.923706 132.15659l0 0c0 103.2207 -88.54187 186.89764 -197.7638 186.89764l0 0c-109.221924 0 -197.7638 -83.67694 -197.7638 -186.89764z" fill-rule="evenodd"/><path stroke="#efefef" stroke-width="1.0" stroke-linejoin="round" stroke-linecap="butt" d="m282.2362 360.0l0 0c0 -103.2207 88.54187 -186.89764 197.7638 -186.89764l0 0c52.450195 0 102.7522 19.690948 139.84009 54.74106c37.08795 35.05011 57.923706 82.58826 57.923706 132.15659l0 0c0 103.2207 -88.54187 186.89764 -197.7638 186.89764l0 0c-109.221924 0 -197.7638 -83.67694 -197.7638 -186.89764z" fill-rule="evenodd"/><path fill="#000000" fill-opacity="0.0" d="m480.0 546.89764l-197.7638 -186.89764" fill-rule="evenodd"/><path stroke="#86bbd8" stroke-width="1.0" stroke-linejoin="round" stroke-linecap="butt" d="m480.0 546.89764l-197.7638 -186.89764" fill-rule="evenodd"/><path fill="#000000" fill-opacity="0.0" d="m340.15988 492.1566l0 -264.31494" fill-rule="evenodd"/><path stroke="#86bbd8" stroke-width="1.0" stroke-linejoin="round" stroke-linecap="butt" d="m340.15988 492.1566l0 -264.31494" fill-rule="evenodd"/><path fill="#000000" fill-opacity="0.0" d="m619.8401 492.1566l-279.68503 0" fill-rule="evenodd"/><path stroke="#86bbd8" stroke-width="1.0" stroke-linejoin="round" stroke-linecap="butt" d="m619.8401 492.1566l-279.68503 0" fill-rule="evenodd"/><path fill="#000000" fill-opacity="0.0" d="m619.8401 492.1566l57.921265 -132.15747" fill-rule="evenodd"/><path stroke="#2f4858" stroke-width="1.0" stroke-linejoin="round" stroke-linecap="butt" d="m619.8401 492.1566l57.921265 -132.15747" fill-rule="evenodd"/><path fill="#000000" fill-opacity="0.0" d="m677.7638 360.0l-197.7638 -186.89764" fill-rule="evenodd"/><path stroke="#86bbd8" stroke-width="1.0" stroke-linejoin="round" stroke-linecap="butt" d="m677.7638 360.0l-197.7638 -186.89764" fill-rule="evenodd"/><path fill="#000000" fill-opacity="0.0" d="m480.0 173.10236l139.84253 54.740158" fill-rule="evenodd"/><path stroke="#2f4858" stroke-width="1.0" stroke-linejoin="round" stroke-linecap="butt" d="m480.0 173.10236l139.84253 54.740158" fill-rule="evenodd"/><path fill="#000000" fill-opacity="0.0" d="m619.8401 227.84341l57.921265 132.15747" fill-rule="evenodd"/><path stroke="#2f4858" stroke-width="1.0" stroke-linejoin="round" stroke-linecap="butt" d="m619.8401 227.84341l57.921265 132.15747" fill-rule="evenodd"/><path fill="#000000" fill-opacity="0.0" d="m480.0 173.10236l-139.84253 54.740158" fill-rule="evenodd"/><path stroke="#2f4858" stroke-width="1.0" stroke-linejoin="round" stroke-linecap="butt" d="m480.0 173.10236l-139.84253 54.740158" fill-rule="evenodd"/><path fill="#000000" fill-opacity="0.0" d="m340.15988 227.84341l-57.921265 132.15747" fill-rule="evenodd"/><path stroke="#2f4858" stroke-width="1.0" stroke-linejoin="round" stroke-linecap="butt" d="m340.15988 227.84341l-57.921265 132.15747" fill-rule="evenodd"/><path fill="#000000" fill-opacity="0.0" d="m282.2362 360.0l57.921265 132.15747" fill-rule="evenodd"/><path stroke="#2f4858" stroke-width="1.0" stroke-linejoin="round" stroke-linecap="butt" d="m282.2362 360.0l57.921265 132.15747" fill-rule="evenodd"/><path fill="#000000" fill-opacity="0.0" d="m340.15988 492.1566l139.84253 54.740143" fill-rule="evenodd"/><path stroke="#2f4858" stroke-width="1.0" stroke-linejoin="round" stroke-linecap="butt" d="m340.15988 492.1566l139.84253 54.740143" fill-rule="evenodd"/><path fill="#000000" fill-opacity="0.0" d="m480.0 546.89764l139.84253 -54.740173" fill-rule="evenodd"/><path stroke="#2f4858" stroke-width="1.0" stroke-linejoin="round" stroke-linecap="butt" d="m480.0 546.89764l139.84253 -54.740173" fill-rule="evenodd"/><path fill="#000000" fill-opacity="0.0" d="m619.8401 492.1566l0 -264.31494" fill-rule="evenodd"/><path stroke="#86bbd8" stroke-width="1.0" stroke-linejoin="round" stroke-linecap="butt" d="m619.8401 492.1566l0 -264.31494" fill-rule="evenodd"/><path fill="#000000" fill-opacity="0.0" d="m480.0 546.89764l197.7638 -186.89764" fill-rule="evenodd"/><path stroke="#86bbd8" stroke-width="1.0" stroke-linejoin="round" stroke-linecap="butt" d="m480.0 546.89764l197.7638 -186.89764" fill-rule="evenodd"/><path fill="#000000" fill-opacity="0.0" d="m282.2362 360.0l197.7638 -186.89764" fill-rule="evenodd"/><path stroke="#86bbd8" stroke-width="1.0" stroke-linejoin="round" stroke-linecap="butt" d="m282.2362 360.0l197.7638 -186.89764" fill-rule="evenodd"/><path fill="#000000" fill-opacity="0.0" d="m619.8401 227.84341l-279.68503 0" fill-rule="evenodd"/><path stroke="#86bbd8" stroke-width="1.0" stroke-linejoin="round" stroke-linecap="butt" d="m619.8401 227.84341l-279.68503 0" fill-rule="evenodd"/></g></svg>