<svg version="1.1" viewBox="0.0 0.0 960.0 720.0" fill="none" stroke="none" stroke-linecap="square" stroke-miterlimit="10" xmlns:xlink="http://www.w3.org/1999/xlink" xmlns="http://www.w3.org/2000/svg"><clipPath id="p.0"><path d="m0 0l960.0 0l0 720.0l-960.0 0l0 -720.0z" clip-rule="nonzero"/></clipPath><g clip-path="url(#p.0)"><path fill="#000000" fill-opacity="0.0" d="m0 0l960.0 0l0 720.0l-960.0 0z" fill-rule="evenodd"/><path fill="#ffffff" d="m109.125984 166.57742l732.69293 0l0 373.79526l-732.69293 0z" fill-rule="evenodd"/><path stroke="#efefef" stroke-width="1.0" stroke-linejoin="round" stroke-linecap="butt" d="m109.125984 166.57742l732.69293 0l0 373.79526l-732.69293 0z" fill-rule="evenodd"/><path fill="#000000" fill-opacity="0.0" d="m151.77165 253.96326l647.40155 0l0 199.02362l-647.40155 0z" fill-rule="evenodd"/><path fill="#86bbd8" d="m219.7304 317.9995q5.5 0 10.234375 1.859375q4.734375 1.859375 8.25 4.8125q3.53125 2.9375 5.515625 6.140625q1.984375 3.1875 1.984375 6.0l-2.4375 -1.53125l0 -11.140625q0 -2.171875 1.40625 -3.640625q1.40625 -1.46875 3.71875 -1.46875q2.171875 0 3.640625 1.46875q1.484375 1.46875 1.484375 3.640625l0 56.078125q0 10.484375 -4.421875 17.390625q-4.421875 6.921875 -11.84375 10.375q-7.421875 3.453125 -16.640625 3.453125q-3.84375 0 -8.453125 -1.03125q-4.59375 -1.015625 -8.1875 -2.484375q-3.578125 -1.46875 -4.609375 -3.0q-1.921875 -1.28125 -2.375 -2.890625q-0.4375 -1.59375 0.59375 -3.0q1.140625 -1.796875 3.0 -1.796875q1.859375 0 4.671875 1.15625q1.15625 0.375 3.640625 1.265625q2.5 0.90625 5.640625 1.609375q3.140625 0.703125 6.203125 0.703125q10.890625 0 16.703125 -5.703125q5.828125 -5.6875 5.828125 -15.03125l0 -11.90625l1.40625 0.640625q-0.765625 3.59375 -3.140625 6.671875q-2.359375 3.0625 -5.75 5.4375q-3.390625 2.359375 -7.484375 3.703125q-4.09375 1.34375 -8.328125 1.34375q-8.953125 0 -16.125 -4.484375q-7.171875 -4.484375 -11.328125 -12.28125q-4.15625 -7.8125 -4.15625 -17.796875q0 -10.109375 4.15625 -17.921875q4.15625 -7.8125 11.265625 -12.21875q7.109375 -4.421875 15.9375 -4.421875zm1.28125 9.46875q-6.53125 0 -11.71875 3.265625q-5.1875 3.265625 -8.0625 8.90625q-2.875 5.625 -2.875 12.921875q0 7.046875 2.875 12.75q2.875 5.6875 8.0625 9.015625q5.1875 3.328125 11.71875 3.328125q6.65625 0 11.765625 -3.265625q5.125 -3.265625 8.0625 -8.890625q2.953125 -5.640625 2.953125 -12.9375q0 -7.421875 -2.953125 -13.046875q-2.9375 -5.640625 -8.0625 -8.84375q-5.109375 -3.203125 -11.765625 -3.203125zm61.308884 53.125q0 2.171875 -1.46875 3.71875q-1.46875 1.53125 -3.65625 1.53125q-2.296875 0 -3.703125 -1.53125q-1.40625 -1.546875 -1.40625 -3.71875l0 -56.828125q0 -2.171875 1.46875 -3.640625q1.46875 -1.484375 3.640625 -1.484375q2.1875 0 3.65625 1.484375q1.46875 1.46875 1.46875 3.640625l0 56.828125zm-5.125 -70.53125q-3.203125 0 -4.734375 -1.28125q-1.53125 -1.28125 -1.53125 -3.96875l0 -1.78125q0 -2.6875 1.65625 -3.96875q1.671875 -1.28125 4.734375 -1.28125q3.078125 0 4.609375 1.28125q1.53125 1.28125 1.53125 3.96875l0 1.78125q0 2.6875 -1.59375 3.96875q-1.59375 1.28125 -4.671875 1.28125zm23.55365 8.453125q1.546875 0 2.953125 0.84375q1.40625 0.828125 2.046875 2.359375l21.25 49.921875l-2.0625 1.015625l21.640625 -50.8125q1.40625 -3.453125 4.734375 -3.328125q1.921875 0 3.328125 1.28125q1.40625 1.28125 1.40625 3.203125q0 0.765625 -0.1875 1.46875q-0.1875 0.703125 -0.453125 1.21875l-24.703125 56.828125q-1.40625 3.203125 -4.484375 3.328125q-1.65625 0.125 -3.125 -0.703125q-1.46875 -0.828125 -2.109375 -2.625l-24.71875 -56.703125q-0.25 -0.515625 -0.4375 -1.15625q-0.1875 -0.640625 -0.1875 -1.53125q0 -1.671875 1.34375 -3.140625q1.34375 -1.46875 3.765625 -1.46875zm99.07376 68.609375q-10.234375 0 -17.921875 -4.34375q-7.671875 -4.359375 -11.96875 -11.96875q-4.28125 -7.625 -4.28125 -17.609375q0 -11.140625 4.40625 -19.0q4.421875 -7.875 11.515625 -12.03125q7.109375 -4.171875 15.046875 -4.171875q5.890625 0 11.390625 2.1875q5.515625 2.171875 9.734375 6.328125q4.21875 4.15625 6.78125 9.984375q2.5625 5.828125 2.6875 12.984375q0 2.0625 -1.53125 3.46875q-1.53125 1.40625 -3.578125 1.40625l-50.5625 0l-2.3125 -8.828125l49.28125 0l-2.046875 1.78125l0 -2.8125q-0.515625 -5.25 -3.53125 -9.015625q-3.0 -3.78125 -7.296875 -5.828125q-4.28125 -2.046875 -9.015625 -2.046875q-3.828125 0 -7.609375 1.34375q-3.78125 1.34375 -6.796875 4.359375q-3.0 3.0 -4.859375 7.734375q-1.84375 4.734375 -1.84375 11.390625q0 7.421875 3.0 13.0625q3.015625 5.625 8.390625 8.890625q5.375 3.265625 12.546875 3.265625q4.46875 0 7.796875 -1.15625q3.328125 -1.15625 5.765625 -2.875q2.4375 -1.734375 4.09375 -3.53125q1.671875 -1.140625 3.203125 -1.140625q1.921875 0 3.125 1.28125q1.21875 1.265625 1.21875 3.0625q0 2.171875 -2.046875 3.84375q-3.578125 3.96875 -9.734375 6.984375q-6.140625 3.0 -13.046875 3.0z" fill-rule="nonzero"/><path fill="#2f4858" d="m497.10443 319.03076q2.171875 0 3.640625 1.46875q1.484375 1.46875 1.484375 3.640625l0 56.453125q0 2.171875 -1.484375 3.71875q-1.46875 1.53125 -3.640625 1.53125q-2.296875 0 -3.71875 -1.53125q-1.40625 -1.546875 -1.40625 -3.71875l0 -12.15625l2.4375 -0.25q0 2.8125 -1.921875 6.140625q-1.921875 3.328125 -5.25 6.203125q-3.328125 2.875 -7.875 4.734375q-4.53125 1.859375 -9.78125 1.859375q-8.703125 0 -15.625 -4.546875q-6.90625 -4.546875 -10.9375 -12.34375q-4.03125 -7.8125 -4.03125 -17.796875q0 -10.109375 4.03125 -17.859375q4.03125 -7.75 10.9375 -12.15625q6.921875 -4.421875 15.359375 -4.421875q5.515625 0 10.25 1.796875q4.734375 1.796875 8.25 4.875q3.515625 3.0625 5.5 6.78125q1.984375 3.703125 1.984375 7.421875l-3.328125 -0.78125l0 -13.953125q0 -2.171875 1.40625 -3.640625q1.421875 -1.46875 3.71875 -1.46875zm-26.375 58.625q6.40625 0 11.328125 -3.328125q4.9375 -3.328125 7.6875 -9.015625q2.75 -5.703125 2.75 -12.875q0 -7.046875 -2.75 -12.734375q-2.75 -5.703125 -7.6875 -8.96875q-4.921875 -3.265625 -11.328125 -3.265625q-6.265625 0 -11.203125 3.203125q-4.921875 3.203125 -7.734375 8.84375q-2.8125 5.625 -2.8125 12.921875q0 7.171875 2.75 12.875q2.75 5.6875 7.671875 9.015625q4.9375 3.328125 11.328125 3.328125zm46.732605 -2.3125q-1.15625 -1.65625 -1.03125 -3.515625q0.125 -1.859375 2.171875 -3.265625q1.28125 -0.890625 3.0 -0.765625q1.734375 0.125 3.15625 1.65625q3.578125 4.234375 8.1875 6.734375q4.609375 2.484375 11.265625 2.484375q3.0625 -0.125 6.140625 -1.015625q3.078125 -0.90625 5.1875 -3.140625q2.109375 -2.234375 2.109375 -5.953125q0 -3.578125 -2.1875 -5.6875q-2.171875 -2.125 -5.625 -3.46875q-3.453125 -1.34375 -7.546875 -2.359375q-4.21875 -1.15625 -8.328125 -2.625q-4.09375 -1.46875 -7.359375 -3.703125q-3.265625 -2.25 -5.25 -5.640625q-1.96875 -3.390625 -1.96875 -8.265625q0 -5.75 3.125 -9.96875q3.140625 -4.234375 8.453125 -6.53125q5.3125 -2.3125 11.578125 -2.3125q3.59375 0 7.484375 0.84375q3.90625 0.828125 7.609375 2.8125q3.71875 1.984375 6.546875 5.4375q1.140625 1.28125 1.265625 3.203125q0.140625 1.921875 -1.65625 3.453125q-1.40625 1.015625 -3.140625 0.890625q-1.71875 -0.125 -2.875 -1.28125q-2.6875 -3.203125 -6.71875 -4.921875q-4.03125 -1.734375 -8.890625 -1.734375q-3.078125 0 -6.03125 0.90625q-2.9375 0.890625 -4.921875 3.0q-1.984375 2.109375 -1.984375 5.828125q0.125 3.453125 2.296875 5.640625q2.1875 2.171875 5.890625 3.515625q3.71875 1.34375 8.203125 2.625q4.09375 1.015625 7.859375 2.359375q3.78125 1.34375 6.859375 3.53125q3.078125 2.171875 4.859375 5.5625q1.796875 3.390625 1.796875 8.515625q0 5.875 -3.328125 10.171875q-3.328125 4.28125 -8.765625 6.53125q-5.4375 2.234375 -11.71875 2.234375q-7.03125 0 -13.890625 -2.6875q-6.84375 -2.6875 -11.828125 -9.09375zm60.67206 0q-1.15625 -1.65625 -1.03125 -3.515625q0.125 -1.859375 2.171875 -3.265625q1.28125 -0.890625 3.0 -0.765625q1.734375 0.125 3.15625 1.65625q3.578125 4.234375 8.1875 6.734375q4.609375 2.484375 11.265625 2.484375q3.0625 -0.125 6.140625 -1.015625q3.078125 -0.90625 5.1875 -3.140625q2.109375 -2.234375 2.109375 -5.953125q0 -3.578125 -2.1875 -5.6875q-2.171875 -2.125 -5.625 -3.46875q-3.453125 -1.34375 -7.546875 -2.359375q-4.21875 -1.15625 -8.328125 -2.625q-4.09375 -1.46875 -7.359375 -3.703125q-3.265625 -2.25 -5.25 -5.640625q-1.96875 -3.390625 -1.96875 -8.265625q0 -5.75 3.125 -9.96875q3.140625 -4.234375 8.453125 -6.53125q5.3125 -2.3125 11.578125 -2.3125q3.59375 0 7.484375 0.84375q3.90625 0.828125 7.609375 2.8125q3.71875 1.984375 6.546875 5.4375q1.140625 1.28125 1.265625 3.203125q0.140625 1.921875 -1.65625 3.453125q-1.40625 1.015625 -3.140625 0.890625q-1.71875 -0.125 -2.875 -1.28125q-2.6875 -3.203125 -6.71875 -4.921875q-4.03125 -1.734375 -8.890625 -1.734375q-3.078125 0 -6.03125 0.90625q-2.9375 0.890625 -4.921875 3.0q-1.984375 2.109375 -1.984375 5.828125q0.125 3.453125 2.296875 5.640625q2.1875 2.171875 5.890625 3.515625q3.71875 1.34375 8.203125 2.625q4.09375 1.015625 7.859375 2.359375q3.78125 1.34375 6.859375 3.53125q3.078125 2.171875 4.859375 5.5625q1.796875 3.390625 1.796875 8.515625q0 5.875 -3.328125 10.171875q-3.328125 4.28125 -8.765625 6.53125q-5.4375 2.234375 -11.71875 2.234375q-7.03125 0 -13.890625 -2.6875q-6.84375 -2.6875 -11.828125 -9.09375zm74.2345 5.25q0 2.171875 -1.46875 3.71875q-1.46875 1.53125 -3.65625 1.53125q-2.296875 0 -3.703125 -1.53125q-1.40625 -1.546875 -1.40625 -3.71875l0 -56.828125q0 -2.171875 1.46875 -3.640625q1.46875 -1.484375 3.640625 -1.484375q2.1875 0 3.65625 1.484375q1.46875 1.46875 1.46875 3.640625l0 56.828125zm-5.125 -70.53125q-3.203125 0 -4.734375 -1.28125q-1.53125 -1.28125 -1.53125 -3.96875l0 -1.78125q0 -2.6875 1.65625 -3.96875q1.671875 -1.28125 4.734375 -1.28125q3.078125 0 4.609375 1.28125q1.53125 1.28125 1.53125 3.96875l0 1.78125q0 2.6875 -1.59375 3.96875q-1.59375 1.28125 -4.671875 1.28125zm19.850525 65.28125q-1.15625 -1.65625 -1.03125 -3.515625q0.125 -1.859375 2.171875 -3.265625q1.28125 -0.890625 3.0 -0.765625q1.734375 0.125 3.15625 1.65625q3.578125 4.234375 8.1875 6.734375q4.609375 2.484375 11.265625 2.484375q3.0625 -0.125 6.140625 -1.015625q3.078125 -0.90625 5.1875 -3.140625q2.109375 -2.234375 2.109375 -5.953125q0 -3.578125 -2.1875 -5.6875q-2.171875 -2.125 -5.625 -3.46875q-3.453125 -1.34375 -7.546875 -2.359375q-4.21875 -1.15625 -8.328125 -2.625q-4.09375 -1.46875 -7.359375 -3.703125q-3.265625 -2.25 -5.25 -5.640625q-1.96875 -3.390625 -1.96875 -8.265625q0 -5.75 3.125 -9.96875q3.140625 -4.234375 8.453125 -6.53125q5.3125 -2.3125 11.578125 -2.3125q3.59375 0 7.484375 0.84375q3.90625 0.828125 7.609375 2.8125q3.71875 1.984375 6.546875 5.4375q1.140625 1.28125 1.265625 3.203125q0.140625 1.921875 -1.65625 3.453125q-1.40625 1.015625 -3.140625 0.890625q-1.71875 -0.125 -2.875 -1.28125q-2.6875 -3.203125 -6.71875 -4.921875q-4.03125 -1.734375 -8.890625 -1.734375q-3.078125 0 -6.03125 0.90625q-2.9375 0.890625 -4.921875 3.0q-1.984375 2.109375 -1.984375 5.828125q0.125 3.453125 2.296875 5.640625q2.1875 2.171875 5.890625 3.515625q3.71875 1.34375 8.203125 2.625q4.09375 1.015625 7.859375 2.359375q3.78125 1.34375 6.859375 3.53125q3.078125 2.171875 4.859375 5.5625q1.796875 3.390625 1.796875 8.515625q0 5.875 -3.328125 10.171875q-3.328125 4.28125 -8.765625 6.53125q-5.4375 2.234375 -11.71875 2.234375q-7.03125 0 -13.890625 -2.6875q-6.84375 -2.6875 -11.828125 -9.09375zm61.812622 -55.296875l30.078125 0q2.0625 0 3.40625 1.421875q1.34375 1.40625 1.34375 3.3125q0 2.046875 -1.34375 3.40625q-1.34375 1.34375 -3.40625 1.34375l-30.078125 0q-1.921875 0 -3.328125 -1.40625q-1.40625 -1.421875 -1.40625 -3.46875q0 -1.921875 1.40625 -3.265625q1.40625 -1.34375 3.328125 -1.34375zm13.453125 -17.40625q2.171875 0 3.578125 1.484375q1.40625 1.46875 1.40625 3.640625l0 61.828125q0 3.0625 0.890625 4.609375q0.90625 1.53125 2.375 2.109375q1.46875 0.578125 2.875 0.578125q1.28125 0 2.234375 -0.453125q0.96875 -0.453125 2.25 -0.453125q1.28125 0 2.359375 1.21875q1.09375 1.21875 1.09375 3.140625q0 2.296875 -2.6875 3.90625q-2.6875 1.59375 -6.015625 1.59375q-1.796875 0 -4.421875 -0.25q-2.609375 -0.265625 -5.171875 -1.671875q-2.5625 -1.40625 -4.296875 -4.671875q-1.71875 -3.265625 -1.71875 -9.15625l0 -62.328125q0 -2.171875 1.53125 -3.640625q1.53125 -1.484375 3.71875 -1.484375z" fill-rule="nonzero"/></g></svg>